{"title":"See No Evil - S01E05 - Mansion Murder Cam","uid":15216139,"size":1184534547,"categoryP":"video","categoryS":"tv_shows","magnet":"?xt=urn:btih:23da264a75bffbba9e2cffaac0dfef6ad68594f1&amp;dn=See+No+Evil+-+S01E05+-+Mansion+Murder+Cam&amp;tr=udp%3A%2F%2Ftracker.leechers-paradise.org%3A6969&amp;tr=udp%3A%2F%2Fzer0day.ch%3A1337&amp;tr=udp%3A%2F%2Fopen.demonii.com%3A1337&amp;tr=udp%3A%2F%2Ftracker.coppersurfer.tk%3A6969&amp;tr=udp%3A%2F%2Fexodus.desync.com%3A6969","seeders":2,"leechers":2,"uploader":"Bullrout","files":1,"time":1467695014,"description":"See No Evil - S01E05 - Mansion Murder Cam\r\n\r\nIn Pensacola Florida, two loving parents are brutally gunned down in their own home. The cop's only witness...one that never lies: surveillance cameras. It's what they must rely on, to catch the killers and bring them to justice.\r\n\r\nComplete name                            : See No Evil - S01E05 - Mansion Murder Cam.mkv\r\nFormat                                   : Matroska\r\nFormat version                           : Version 4 / Version 2\r\nFile size                                : 1.10 GiB\r\nDuration                                 : 47mn 33s\r\nOverall bit rate mode                    : Variable\r\nOverall bit rate                         : 3 321 Kbps\r\nEncoded date                             : UTC 2016-06-27 02:30:24\r\nWriting application                      : mkvmerge v9.2.0 ('Photograph') 64bit\r\nWriting library                          : libebml v1.3.3 + libmatroska v1.4.4\r\n\r\nVideo\r\nID                                       : 2\r\nFormat                                   : AVC\r\nFormat/Info                              : Advanced Video Codec\r\nFormat profile                           :   \r\nFormat settings, CABAC                   : Yes\r\nFormat settings, ReFrames                : 3 frames\r\nCodec ID                                 : V_MPEG4/ISO/AVC\r\nDuration                                 : 47mn 33s\r\nBit rate mode                            : Variable\r\nBit rate                                 : 2 935 Kbps\r\nMaximum bit rate                         : 3 000 Kbps\r\nWidth                                    : 1 280 pixels\r\nHeight                                   : 720 pixels\r\nDisplay aspect ratio                     : 16:9\r\nFrame rate mode                          : Constant\r\nFrame rate                               : 25.000 fps\r\nStandard                                 : PAL\r\nColor space                              : YUV\r\nChroma subsampling                       : 4:2:0\r\nBit depth                                : 8 bits\r\nScan type                                : Progressive\r\nBits/(Pixel*Frame)                       : 0.127\r\nStream size                              : 998 MiB (88%)\r\nWriting library                          : x264 core 112\r\nDefault                                  : Yes\r\nForced                                   : No\r\nColor range                              : Limited\r\nColor primaries                          : BT.709\r\nTransfer characteristics                 : BT.709\r\nMatrix coefficients                      : BT.709\r\n\r\nAudio\r\nID                                       : 1\r\nFormat                                   : AC-3\r\nFormat/Info                              : Audio Coding 3\r\nMode extension                           : CM (complete main)\r\nFormat settings, Endianness              : Big\r\nCodec ID                                 : A_AC3\r\nDuration                                 : 47mn 33s\r\nBit rate mode                            : Constant\r\nBit rate                                 : 384 Kbps\r\nChannel(s)                               : 6 channels\r\nChannel positions                        : Front: L C R, Side: L R, LFE\r\nSampling rate                            : 48.0 KHz\r\nFrame rate                               : 31.250 fps (1536 spf)\r\nCompression mode                         : Lossy\r\nStream size                              : 131 MiB (12%)\r\nDefault                                  : Yes\r\nForced                                   : No","torrent":{"xt":"urn:btih:23da264a75bffbba9e2cffaac0dfef6ad68594f1","amp;dn":"See+No+Evil+-+S01E05+-+Mansion+Murder+Cam","amp;tr":["udp%3A%2F%2Ftracker.leechers-paradise.org%3A6969","udp%3A%2F%2Fzer0day.ch%3A1337","udp%3A%2F%2Fopen.demonii.com%3A1337","udp%3A%2F%2Ftracker.coppersurfer.tk%3A6969","udp%3A%2F%2Fexodus.desync.com%3A6969"],"infoHash":"23da264a75bffbba9e2cffaac0dfef6ad68594f1","infoHashBuffer":{"type":"Buffer","data":[35,218,38,74,117,191,251,186,158,44,255,170,192,223,239,106,214,133,148,241]},"announce":[],"urlList":[]}}